<svg width="100" height="100" viewBox="0 0 100 100" fill="none" xmlns="http://www.w3.org/2000/svg">
<circle cx="50" cy="50" r="50" fill="#95A9C6"/>
<rect x="22" y="24" width="52" height="52" rx="26" fill="white"/>
<path opacity="0.4" d="M48.26 51.69C48.1083 51.6684 47.9133 51.6684 47.74 51.69C43.9267 51.56 40.8933 48.44 40.8933 44.605C40.8933 40.6834 44.0567 37.4984 48 37.4984C51.9217 37.4984 55.1067 40.6834 55.1067 44.605C55.085 48.44 52.0733 51.56 48.26 51.69Z" stroke="#292D32" stroke-width="1.5" stroke-linecap="round" stroke-linejoin="round"/>
<path opacity="0.34" d="M62.6033 65.99C58.7467 69.5217 53.6333 71.6667 48 71.6667C42.3667 71.6667 37.2533 69.5217 33.3967 65.99C33.6133 63.9533 34.9133 61.96 37.2317 60.4C43.1683 56.4567 52.875 56.4567 58.7683 60.4C61.0867 61.96 62.3867 63.9533 62.6033 65.99Z" stroke="#292D32" stroke-width="1.5" stroke-linecap="round" stroke-linejoin="round"/>
</svg>
