<svg width="31" height="31" viewBox="0 0 31 31" fill="none" xmlns="http://www.w3.org/2000/svg">
<path fill-rule="evenodd" clip-rule="evenodd" d="M15.5 0.916626C7.44999 0.916626 0.916656 7.44996 0.916656 15.5C0.916656 23.55 7.44999 30.0833 15.5 30.0833C23.55 30.0833 30.0833 23.55 30.0833 15.5C30.0833 7.44996 23.55 0.916626 15.5 0.916626ZM23.2437 20.327C22.8208 20.5604 22.4708 20.6625 22.1791 20.7354C21.9312 20.7937 21.7271 20.852 21.5521 20.9687C21.3625 21.0854 21.3479 21.2749 21.3187 21.4499C21.2896 21.6104 21.275 21.7416 21.1583 21.8291C21.0271 21.9166 20.7792 21.9312 20.4438 21.9458C20.0063 21.975 19.4521 21.9895 18.7812 22.1937C18.4604 22.3104 18.1687 22.4854 17.8771 22.6604C17.2937 23.025 16.6375 23.4187 15.4854 23.4187C14.3479 23.4187 13.6916 23.025 13.1083 22.6604C12.8166 22.4708 12.525 22.2958 12.1896 22.1791C11.5333 21.9749 10.9646 21.9458 10.5271 21.9312C10.1917 21.9166 9.95833 21.902 9.8125 21.8145C9.69583 21.7416 9.68122 21.5958 9.65206 21.4354C9.62289 21.2604 9.6083 21.0708 9.41872 20.9541C9.24372 20.8374 9.02498 20.7791 8.79165 20.7062C8.49998 20.6333 8.15001 20.5458 7.72709 20.3124C7.23126 20.0354 7.52293 19.875 7.68334 19.7875C10.4979 18.4312 10.9354 16.3312 10.95 16.1708C10.95 16.1562 10.95 16.1562 10.95 16.1416C10.9792 15.9666 10.9937 15.8208 10.7896 15.6312C10.6583 15.5 10.2062 15.2083 9.84165 14.975C9.68123 14.8583 9.53541 14.7708 9.44792 14.727C9.03958 14.4354 8.86459 14.1583 8.99584 13.7937C9.08333 13.5458 9.31668 13.4583 9.55001 13.4583C9.62293 13.4583 9.71042 13.4729 9.76875 13.4875C10.0312 13.5458 10.2937 13.6479 10.5271 13.7354C10.6875 13.8083 10.8187 13.8521 10.9208 13.8812C10.95 13.8958 10.9938 13.8958 11.0083 13.8958C11.1542 13.8958 11.1979 13.8229 11.1833 13.677C11.1833 13.6333 11.1833 13.5895 11.1687 13.5458C11.1396 13.0354 11.0958 12.1458 11.1541 11.3291C11.2708 10.1041 11.6646 9.47706 12.1312 8.95206C12.3646 8.68956 13.4292 7.56662 15.4562 7.56662C17.4979 7.56662 18.5479 8.68954 18.7812 8.93746C19.2479 9.47704 19.6417 10.0896 19.7583 11.3291C19.8313 12.1896 19.7729 13.1083 19.7291 13.6187V13.6624C19.7146 13.8229 19.7583 13.8812 19.9041 13.8812C19.9333 13.8812 19.9625 13.8812 19.9916 13.8666C20.0937 13.8375 20.225 13.7937 20.3854 13.7354C20.6042 13.6479 20.8666 13.5458 21.1437 13.4875C21.2166 13.4583 21.2896 13.4583 21.3625 13.4583C21.6104 13.4583 21.8291 13.5604 21.9166 13.8083C22.0479 14.1583 21.8729 14.4354 21.4646 14.727C21.3916 14.7854 21.2458 14.8875 21.0708 14.975C20.7208 15.2083 20.2542 15.5 20.1229 15.6312C19.9188 15.8208 19.9333 15.9666 19.9625 16.1416C19.9625 16.1562 19.9625 16.1708 19.9625 16.1708C19.9917 16.3312 20.4291 18.4312 23.2291 19.7875C23.4479 19.875 23.7396 20.05 23.2437 20.327Z" fill="#837D87"/>
</svg>
