<svg width="31" height="31" viewBox="0 0 31 31" fill="none" xmlns="http://www.w3.org/2000/svg">
<path d="M30.0833 21.6104C30.0833 26.9187 26.9187 30.0833 21.6104 30.0833H19.875C19.0729 30.0833 18.4167 29.427 18.4167 28.625V20.2104C18.4167 19.8166 18.7375 19.4812 19.1312 19.4812L21.6979 19.4375C21.9021 19.4229 22.0771 19.2771 22.1208 19.0729L22.6313 16.2875C22.675 16.025 22.4708 15.777 22.1937 15.777L19.0875 15.8208C18.6791 15.8208 18.3583 15.5 18.3438 15.1062L18.2854 11.5333C18.2854 11.3 18.475 11.0958 18.7229 11.0958L22.2229 11.0375C22.4708 11.0375 22.6604 10.8479 22.6604 10.6L22.6021 7.09994C22.6021 6.85203 22.4125 6.66246 22.1646 6.66246L18.2271 6.72081C15.8062 6.76456 13.8813 8.74787 13.925 11.1687L13.9979 15.1791C14.0125 15.5875 13.6917 15.9083 13.2833 15.9229L11.5333 15.952C11.2854 15.952 11.0958 16.1416 11.0958 16.3895L11.1396 19.1604C11.1396 19.4083 11.3292 19.5979 11.5771 19.5979L13.3271 19.5687C13.7354 19.5687 14.0562 19.8895 14.0708 20.2833L14.2021 28.5958C14.2166 29.4125 13.5604 30.0833 12.7437 30.0833H9.38957C4.08124 30.0833 0.916656 26.9187 0.916656 21.5958V9.38954C0.916656 4.08121 4.08124 0.916626 9.38957 0.916626H21.6104C26.9187 0.916626 30.0833 4.08121 30.0833 9.38954V21.6104Z" fill="#837D87"/>
</svg>
