<svg width="29" height="31" viewBox="0 0 29 31" fill="none" xmlns="http://www.w3.org/2000/svg">
<path d="M28.7041 14.1437C28.6312 13.4 28.0041 12.8458 27.2604 12.8458H16.25C15.4479 12.8458 14.7916 13.502 14.7916 14.3041V16.7979C14.7916 17.6 15.4479 18.2562 16.25 18.2562H22.8271C22.6666 19.5979 21.7916 21.625 19.8521 22.9812C18.6125 23.8416 16.9646 24.4395 14.7916 24.4395C14.6896 24.4395 14.6021 24.4395 14.5 24.425C10.7812 24.3083 7.63124 21.8146 6.49374 18.3875C6.18749 17.4687 6.01248 16.5062 6.01248 15.5C6.01248 14.4937 6.18748 13.5166 6.47915 12.6124C6.56665 12.3499 6.66873 12.0875 6.7854 11.825C8.12707 8.80622 11.0583 6.67705 14.5 6.57497C14.5875 6.56038 14.6896 6.56037 14.7916 6.56037C16.8771 6.56037 18.4375 7.24577 19.5312 8.0041C20.1 8.39785 20.8583 8.31036 21.3541 7.82911L23.3812 5.8458C24.0229 5.21872 23.9646 4.1541 23.2354 3.6291C20.9166 1.92285 18.0875 0.916626 14.7916 0.916626C14.6896 0.916626 14.6021 0.91664 14.5 0.931224C8.91457 1.03331 4.11665 4.27081 1.76873 8.95206C0.777062 10.9354 0.208313 13.152 0.208313 15.5C0.208313 17.8479 0.777062 20.0645 1.76873 22.0479H1.78332C4.13123 26.7291 8.92915 29.9666 14.5 30.0687C14.6021 30.0833 14.6896 30.0833 14.7916 30.0833C18.7291 30.0833 22.0396 28.7854 24.4458 26.5541C27.2021 24.002 28.7917 20.2687 28.7917 15.8208C28.7917 15.1937 28.7625 14.6541 28.7041 14.1437Z" fill="#837D87"/>
</svg>
